<svg xmlns="http://www.w3.org/2000/svg" viewBox="0 0 338.8 575.39">
    <defs>
        <style>.cls-1{fill:#fff;}</style>
    </defs>
    <g id="Layer_2" data-name="Layer 2">
        <g id="Layer_1-2" data-name="Layer 1">
            <path class="cls-1"
                  d="M105.12,563.46l48-48c17.49-17.5,24.9-43,18.73-66.93-20.9-81.15-114-125.22-114-125.22L47.63,333.48a162.62,162.62,0,0,0,.24,230.22A40.58,40.58,0,0,0,105.12,563.46Z"/>
            <path class="cls-1"
                  d="M315,238.6,76.38,0,47.63,28.75a162.62,162.62,0,0,0,0,230l74,74C209.49,420.58,175,493.6,175,493.6l140-140A81.32,81.32,0,0,0,315,238.6Z"/>
        </g>
    </g>
</svg>